# xmcd CD database file
#
# Track frame offsets:
#	150
#	17877
#	36527
#	54482
#
# Disc length: 972 seconds
#
# Revision: 0
# Processed by: cddbd v1.5.1PL0 Copyright (c) Steve Scherf et al.
# Submitted via: CDex 1.51
#
DISCID=3103ca04
DTITLE=勇者王ガオガイガー - 勇者王ガオガイガー
DYEAR=1997
DGENRE=Anime
TTITLE0=勇者王誕生！
TTITLE1=いつか星の海で
TTITLE2=勇者王誕生！（オリジナル・カラオケ）
TTITLE3=いつか星の海で（オリジナル・カラオケ）
EXTD=YEAR: 1997
EXTT0=
EXTT1=
EXTT2=
EXTT3=
PLAYORDER=
